<?xml version="1.0" encoding="UTF-8" standalone="no"?>
<!-- Created with Inkscape (http://www.inkscape.org/) -->

<svg
   width="600"
   height="600"
   viewBox="0 0 158.74999 158.75"
   version="1.1"
   id="svg5"
   inkscape:version="1.1 (c68e22c387, 2021-05-23)"
   sodipodi:docname="homebrew.svg"
   xmlns:inkscape="http://www.inkscape.org/namespaces/inkscape"
   xmlns:sodipodi="http://sodipodi.sourceforge.net/DTD/sodipodi-0.dtd"
   xmlns="http://www.w3.org/2000/svg"
   xmlns:svg="http://www.w3.org/2000/svg">
  <sodipodi:namedview
     id="namedview7"
     pagecolor="#ffffff"
     bordercolor="#666666"
     borderopacity="1.0"
     inkscape:pageshadow="2"
     inkscape:pageopacity="0.0"
     inkscape:pagecheckerboard="0"
     inkscape:document-units="mm"
     showgrid="true"
     units="px"
     inkscape:zoom="0.41008324"
     inkscape:cx="315.78954"
     inkscape:cy="551.10762"
     inkscape:window-width="1920"
     inkscape:window-height="1020"
     inkscape:window-x="1920"
     inkscape:window-y="34"
     inkscape:window-maximized="1"
     inkscape:current-layer="layer1">
    <inkscape:grid
       type="xygrid"
       id="grid836" />
  </sodipodi:namedview>
  <defs
     id="defs2">
    <inkscape:path-effect
       effect="bspline"
       id="path-effect873"
       is_visible="true"
       lpeversion="1"
       weight="33.333333"
       steps="2"
       helper_size="0"
       apply_no_weight="true"
       apply_with_weight="true"
       only_selected="false" />
  </defs>
  <g
     inkscape:label="Layer 1"
     inkscape:groupmode="layer"
     id="layer1">
    <path
       style="fill:#000000;stroke-width:0.264583"
       d="m 70.211584,149.56725 c -0.0492,-0.0468 -0.74431,-0.1664 -1.54467,-0.26576 -2.98891,-0.37102 -4.51096,-0.6548 -4.8948,-0.91261 -0.14552,-0.0977 -0.6813,-0.21263 -1.19062,-0.25532 -0.50932,-0.0427 -1.05606,-0.18428 -1.21497,-0.31466 -0.15891,-0.13038 -0.36439,-0.16159 -0.45663,-0.0694 -0.0922,0.0922 -0.3194,0.0425 -0.50482,-0.11052 -0.18542,-0.15302 -1.10213,-0.53547 -2.03714,-0.84989 -2.03318,-0.68369 -5.67257,-2.37274 -5.79651,-2.69016 -0.0485,-0.12424 -0.26937,-0.22589 -0.4908,-0.22589 -0.22143,0 -0.93185,-0.35718 -1.57871,-0.79375 -0.64686,-0.43656 -1.28921,-0.79375 -1.42743,-0.79375 -0.13823,0 -0.25132,-0.092 -0.25132,-0.20441 0,-0.11243 -0.41672,-0.42884 -0.92605,-0.70313 -0.50932,-0.27428 -0.92604,-0.59902 -0.92604,-0.72162 0,-0.12261 -0.17859,-0.22292 -0.39687,-0.22292 -0.21828,0 -0.39688,-0.11906 -0.39688,-0.26458 0,-0.14552 -0.16801,-0.26459 -0.37335,-0.26459 -0.20535,0 -0.65183,-0.32742 -0.99219,-0.7276 -0.34036,-0.40018 -1.21147,-1.20385 -1.93581,-1.78594 -1.26562,-1.01706 -1.76423,-1.49732 -2.91636,-2.80905 -2.30838,-2.62815 -3.00316,-3.52317 -2.88429,-3.71551 0.0756,-0.12227 -0.0482,-0.22231 -0.27509,-0.22231 -0.22687,0 -0.38453,-0.0893 -0.35037,-0.19844 0.0342,-0.10914 -0.23372,-0.52765 -0.59531,-0.93003 -1.13432,-1.26226 -4.40968,-7.60122 -5.18586,-10.03646 -0.24592,-0.77153 -0.53736,-1.52184 -0.64767,-1.66736 -0.3415,-0.45053 -1.36673,-4.58192 -1.41164,-5.68855 -0.0148,-0.3638 -0.10282,-0.72099 -0.19566,-0.79375 -0.20301,-0.15908 -0.50931,-2.72478 -0.57642,-4.82829 -0.0267,-0.83655 -0.15239,-1.52116 -0.27935,-1.52135 -0.12696,-2e-4 -0.0914,-0.16835 0.079,-0.37368 0.17041,-0.20532 0.20886,-0.43572 0.0855,-0.51199 -0.41334,-0.25546 0.053,-7.609972 0.64015,-10.094902 0.10314,-0.43656 0.15986,-0.94257 0.12602,-1.12447 -0.0338,-0.18191 0.0698,-0.33073 0.23028,-0.33073 0.16049,0 0.22035,-0.1156 0.13303,-0.25689 -0.17674,-0.28596 1.10625,-4.7582 1.47853,-5.15384 0.13008,-0.13825 0.23651,-0.5777 0.23651,-0.97657 0,-0.39887 0.11906,-0.79881 0.26458,-0.88875 0.14552,-0.0899 0.26458,-0.39462 0.26458,-0.67707 0,-0.28245 0.11104,-0.51355 0.24675,-0.51355 0.13572,0 0.32644,-0.26789 0.42383,-0.59531 0.27142,-0.91254 1.53656,-3.46158 1.91781,-3.86407 0.53627,-0.56612 1.37471,-2.33724 1.19264,-2.51932 -0.0908,-0.0908 -0.0359,-0.16505 0.12204,-0.16505 0.15791,0 0.54855,-0.42303 0.8681,-0.94006 0.31954,-0.51704 1.16163,-1.61836 1.87131,-2.4474 0.70968,-0.82903 1.29138,-1.65616 1.29267,-1.83806 10e-4,-0.1819 0.18095,-0.33073 0.39923,-0.33073 0.21828,0 0.39687,-0.12757 0.39687,-0.28348 0,-0.26861 0.63768,-1.03944 0.8599,-1.03944 0.27403,0 3.05519,-2.87588 2.91587,-3.0152 -0.0879,-0.0879 0.022,-0.1598 0.24417,-0.1598 0.22218,0 0.82193,-0.38695 1.33278,-0.85989 0.51085,-0.47295 1.20114,-1.03849 1.53398,-1.25677 0.33284,-0.21829 1.02642,-0.75407 1.54128,-1.19063 0.51487,-0.43656 0.8328,-0.61516 0.70651,-0.39687 -0.19029,0.32889 0.57904,-0.18702 1.18426,-0.79417 0.0728,-0.073 0.48948,-0.30599 0.92604,-0.51776 0.43657,-0.21177 0.98751,-0.54424 1.22432,-0.73882 0.23681,-0.19458 0.76397,-0.41423 1.17147,-0.48813 0.4075,-0.0739 0.89457,-0.33654 1.08237,-0.58367 0.18781,-0.24713 0.34526,-0.35584 0.34989,-0.24158 0.005,0.11426 0.2763,0.0592 0.60372,-0.12236 0.32743,-0.18156 0.68461,-0.30481 0.79375,-0.27389 0.10914,0.0309 0.19844,-0.0767 0.19844,-0.23923 0,-0.16518 0.23331,-0.23443 0.52917,-0.15706 0.29104,0.0761 0.52917,0.0525 0.52917,-0.0525 0,-0.20295 3.29895,-1.44626 3.96875,-1.49575 0.21828,-0.0161 0.60523,-0.10834 0.85989,-0.20491 1.08853,-0.41279 1.43158,-0.50643 2.18281,-0.59582 1.79915,-0.21409 2.51213,-0.34141 2.75602,-0.49215 0.61725,-0.38148 11.134433,-0.68004 11.134543,-0.31608 4e-5,0.12471 0.1489,0.16989 0.3308,0.10039 0.1819,-0.0695 1.10463,-0.0115 2.05052,0.12889 0.94588,0.14039 1.89838,0.26027 2.11667,0.2664 0.21828,0.006 0.51593,0.0983 0.66145,0.20485 0.14552,0.10652 0.63823,0.20101 1.09491,0.20998 0.7877,0.0154 0.88039,-0.0948 1.8057,-2.14798 0.53645,-1.19035 0.97957,-2.22381 0.98469,-2.29657 0.005,-0.0728 0.24247,-0.45971 0.52743,-0.85989 0.28495,-0.40018 0.45249,-0.72761 0.37231,-0.72761 -0.0802,0 0.10975,-0.44648 0.42208,-0.99218 1.37365,-2.40006 1.38169,-2.43052 0.80763,-3.0613 -0.8092,-0.88918 -2.21631,-3.58975 -2.13335,-4.09441 0.0408,-0.24808 -0.001,-0.57044 -0.0928,-0.71634 -0.0919,-0.1459 0.006,-0.74122 0.21832,-1.32292 0.21193,-0.5817 0.41433,-1.19445 0.44978,-1.36168 0.0354,-0.16722 0.19795,-0.46487 0.3611,-0.66145 0.16315,-0.19658 0.27787,-0.41696 0.25495,-0.48972 -0.0967,-0.30685 0.72079,-2.38125 0.93839,-2.38125 0.13082,0 0.16606,-0.11615 0.0783,-0.25812 -0.0877,-0.14196 0.0738,-0.70751 0.35903,-1.25677 1.0702,-2.06105 1.7899,-3.82539 1.91834,-4.70281 0.0213,-0.14553 0.26085,-0.42017 0.53233,-0.61032 0.27148,-0.19015 0.4936,-0.52131 0.4936,-0.73591 0,-0.2146 0.17791,-0.45844 0.39536,-0.54189 0.21744,-0.0834 0.34135,-0.23909 0.27534,-0.34589 -0.23287,-0.37678 1.93113,-1.33879 3.33327,-1.48182 0.781,-0.0797 1.565,-0.19373 1.74224,-0.25348 0.17724,-0.0598 0.39208,0.004 0.47741,0.14241 0.0853,0.13807 0.62493,0.20531 1.199103,0.14942 0.57417,-0.0559 1.04395,-0.003 1.04395,0.11659 0,0.12001 0.35886,0.208 0.79748,0.19553 0.43861,-0.0125 0.74591,-0.0742 0.68289,-0.13726 -0.11265,-0.11265 1.19276,-3.45225 1.71189,-4.3795 0.14589,-0.26058 0.19466,-0.588 0.10838,-0.72761 -0.0863,-0.1396 -0.0439,-0.25382 0.0941,-0.25382 0.13804,0 0.40919,-0.53578 0.60254,-1.19062 0.19335,-0.65485 0.45165,-1.19063 0.57398,-1.19063 0.12234,0 0.15154,-0.11472 0.0649,-0.25493 -0.0867,-0.14021 0.0849,-0.4974 0.38126,-0.79375 0.29635,-0.29635 0.54208,-0.5971 0.54606,-0.66833 0.0205,-0.36721 0.45092,-1.20702 1.28963,-2.51632 0.51268,-0.80036 0.95993,-1.63164 0.99386,-1.84728 0.0339,-0.21564 0.18725,-0.43392 0.34069,-0.48507 0.15345,-0.0512 0.279,-0.23521 0.279,-0.40902 0,-0.17382 0.23812,-0.51992 0.52916,-0.76911 0.29105,-0.2492 0.52917,-0.38015 0.52917,-0.29099 0,0.0892 0.17236,0.019 0.38302,-0.15578 0.21066,-0.1748305 0.77621,-0.3736405 1.25677,-0.4417905 0.48056,-0.0682 1.05235,-0.1927 1.27063,-0.27678 0.90056,-0.34687 3.05071,-0.0268 4.15086,0.61796 0.61874,0.3626105 1.2476,0.5835005 1.39748,0.4908805 0.14987,-0.0926 0.27249,-0.0454 0.27249,0.10499 0,0.34334 1.46185,1.1182 1.68625,0.8938 0.0912,-0.0912 0.16706,0.003 0.16856,0.20899 0.002,0.20615 0.86471,0.7902 1.91823,1.29787 2.29541,1.10612 3.56122,1.88119 3.73206,2.28518 0.0693,0.1638 -0.033,0.60419 -0.22728,0.97865 -0.30338,0.58477 -0.29469,0.72941 0.0616,1.0251 0.22816,0.18935 0.42629,0.28762 0.44031,0.21837 0.014,-0.0693 0.83439,0.32646 1.82307,0.87936 1.43314,0.80146 1.76622,1.10409 1.64288,1.4927 -0.0851,0.26809 -0.0421,0.55702 0.0955,0.64206 0.42703,0.26392 0.11062,2.21967 -0.52781,3.26234 -0.53915,0.88053 -3.02816,4.51228 -3.58907,5.23687 -0.11705,0.15121 -0.25213,0.44774 -0.30018,0.65895 -0.0481,0.21122 -0.17966,0.44469 -0.29247,0.51883 -0.1128,0.0741 -0.82968,1.13498 -1.59306,2.35744 -1.45985,2.33778 -1.68237,2.64638 -2.50696,3.47691 -0.47423,0.47765 -0.47989,0.54828 -0.0784,0.97948 1.21312,1.30297 1.50175,1.65534 1.35587,1.65534 -0.0878,0 0.20332,0.41346 0.64703,0.91881 0.79322,0.90344 1.36037,2.35772 1.36328,3.49574 0.002,0.8833 -0.41296,1.78623 -1.27192,2.76595 -0.42883,0.48911 -1.0115,1.30601 -1.29484,1.81533 -0.28333,0.50933 -0.98224,1.73283 -1.55314,2.7189 -0.5709,0.98607 -1.21684,2.11717 -1.43542,2.51354 -0.46417,0.84172 -1.61707,2.51365 -1.86533,2.70506 -0.0944,0.0728 -0.31051,0.39618 -0.48031,0.71871 -0.48601,0.92312 -3.03097,1.57007 -6.51736,1.65677 -0.39025,0.01 -0.73256,0.46367 -1.30393,1.72926 -0.42612,0.94385 -0.8726,1.7161 -0.99219,1.7161 -0.11958,0 -0.21742,0.21163 -0.21742,0.47029 0,0.25867 -0.19178,0.7441 -0.42618,1.07875 -0.23439,0.33465 -0.89374,1.51743 -1.4652,2.6284 l -1.03904,2.01996 0.7894,0.73775 c 0.43417,0.40577 0.91492,0.73776 1.06834,0.73776 0.15341,0 0.27893,0.19844 0.27893,0.44098 0,0.24253 0.0678,0.37319 0.15061,0.29036 0.30767,-0.30768 5.40564,5.70231 5.40564,6.37271 0,0.14311 0.0962,0.29988 0.21384,0.34838 0.30198,0.12455 2.16741,2.99462 2.16741,3.33468 0,0.15471 0.0988,0.32098 0.21958,0.36949 0.42594,0.17107 3.09231,6.25491 3.51745,8.0257 0.13974,0.58208 0.4855,1.68341 0.76835,2.44739 0.28285,0.76399 0.46473,1.38906 0.40417,1.38906 -0.0606,0 0.002,0.38696 0.13907,0.8599 0.84764,2.92519 1.37527,10.746012 0.89186,13.219802 -0.065,0.33257 -0.16883,1.2639 -0.23075,2.06961 -0.1031,1.34148 -0.5894,3.78147 -1.29,6.47256 -0.15155,0.58209 -0.30056,1.18051 -0.33115,1.32984 -0.0785,0.38341 -1.36542,3.70872 -2.04517,5.28475 -1.49305,3.46173 -4.73347,8.66964 -7.12608,11.45283 -1.25456,1.45936 -6.54962,6.67113 -6.77775,6.67113 -0.10851,0 -0.72876,0.47287 -1.37834,1.05082 -0.64957,0.57795 -1.27827,1.0542 -1.39712,1.05833 -0.11885,0.004 -0.5951,0.29444 -1.05834,0.64513 -0.777673,0.58874 -1.338153,0.91611 -4.480263,2.61688 -1.33033,0.72008 -6.07175,2.5912 -8.13594,3.21071 -3.50205,1.05105 -7.20791,1.5424 -12.213663,1.61938 -2.71569,0.0418 -4.97788,0.0376 -5.02708,-0.009 z m 7.914183,-2.51333 c 1.05503,-0.0473 1.91828,-0.15728 1.91834,-0.24437 6e-5,-0.0871 0.5656,-0.18833 1.25677,-0.225 1.62788,-0.0864 3.22989,-0.38115 4.29937,-0.79112 0.21828,-0.0837 0.75406,-0.20189 1.19062,-0.26269 0.43657,-0.0608 0.83369,-0.22127 0.8825,-0.35658 0.0488,-0.13532 0.20362,-0.17503 0.34403,-0.0882 0.1404,0.0868 0.67045,-0.0392 1.17788,-0.28003 0.50743,-0.24079 1.12652,-0.48092 1.37576,-0.53362 0.24924,-0.0527 0.92873,-0.33172 1.50997,-0.62004 0.58125,-0.28833 1.1468,-0.46862 1.25678,-0.40065 0.10997,0.068 0.19996,0.007 0.19996,-0.13473 0,-0.14207 0.55861,-0.47165 1.24136,-0.73239 0.68275,-0.26075 1.81097,-0.8659 2.50716,-1.3448 0.69619,-0.4789 1.32778,-0.87072 1.40352,-0.87072 0.20653,0 3.847483,-2.62707 4.732413,-3.41459 1.67587,-1.49141 5.38478,-5.3489 6.36461,-6.61959 0.56954,-0.7386 1.13508,-1.34291 1.25677,-1.34291 0.12169,0 0.22125,-0.1869 0.22125,-0.41534 0,-0.22845 0.36387,-0.94422 0.8086,-1.59061 0.44472,-0.64639 0.93257,-1.5309 1.08411,-1.96559 0.16621,-0.47679 0.39649,-0.72114 0.58046,-0.61593 0.16773,0.0959 0.21524,0.0755 0.10559,-0.0453 -0.10965,-0.12085 -0.0176,-0.49713 0.20454,-0.83617 0.22215,-0.33904 0.31186,-0.61826 0.19936,-0.62048 -0.11249,-0.002 -0.0793,-0.0915 0.0738,-0.19844 0.30143,-0.21049 0.99808,-1.64469 1.31536,-2.70793 0.10856,-0.3638 0.29313,-0.72352 0.41016,-0.79939 0.11702,-0.0759 0.27347,-0.43304 0.34765,-0.79375 0.0742,-0.3607 0.21007,-0.95347 0.30197,-1.31728 0.0919,-0.3638 0.17739,-0.81028 0.18996,-0.99218 0.0126,-0.18191 0.12207,-0.33073 0.24333,-0.33073 0.12127,0 0.22049,-0.30549 0.22049,-0.67886 0,-0.37336 0.13003,-0.92182 0.28897,-1.21879 0.27157,-0.50743 0.35286,-0.98525 0.66504,-3.9089 0.0691,-0.64698 0.21604,-1.30183 0.32657,-1.45521 0.11053,-0.15338 0.18625,-2.30293 0.16828,-4.77678 -0.035,-4.817522 -0.22704,-6.933752 -0.9364,-10.318762 -0.15248,-0.7276 -0.31454,-1.56104 -0.36013,-1.85208 -0.0456,-0.29104 -0.20242,-0.82682 -0.34849,-1.19062 -0.14607,-0.36381 -0.3555,-1.07818 -0.4654,-1.5875 -0.10989,-0.50933 -0.36318,-1.1609 -0.56287,-1.44794 -0.19969,-0.28704 -0.36307,-0.67534 -0.36307,-0.86289 0,-0.64669 -2.59562,-5.76431 -4.00802,-7.90237 -2.0277,-3.06946 -2.90215,-4.19231 -5.18117,-6.65288 l -2.02073,-2.1817 -0.76764,1.65088 c -0.4222,0.90799 -0.9063,1.73911 -1.07577,1.84693 -0.16947,0.10781 -0.20425,0.19785 -0.0773,0.20008 0.12697,0.002 0.11087,0.15288 -0.0358,0.33478 -0.14664,0.1819 -0.77553,1.28323 -1.39753,2.4474 -0.62201,1.16416 -1.528643,2.7243 -2.014753,3.46697 -0.4861,0.74266 -0.88382,1.4576 -0.88382,1.58875 0,0.20797 -2.25201,2.40533 -3.22461,3.14636 -1.21673,0.92704 -4.0681,1.71979 -6.18574,1.71979 -1.85001,0 -4.20779,-0.64151 -5.02649,-1.36763 -0.30043,-0.26645 -0.69256,-0.48445 -0.87142,-0.48445 -0.45761,0 -3.21257,-2.82827 -3.21257,-3.29804 0,-0.21313 -0.24833,-0.52041 -0.55183,-0.68284 -0.30351,-0.16243 -0.48896,-0.3582 -0.41211,-0.43504 0.0768,-0.0768 -0.0974,-0.74123 -0.38716,-1.4764 -0.56583,-1.43554 -0.87426,-5.38636 -0.44138,-5.6539 0.13632,-0.0842 0.18293,-0.41186 0.10357,-0.72803 -0.0954,-0.38027 0.0162,-0.67508 0.32985,-0.87095 0.45885,-0.28655 2.67601,-4.5378 3.63199,-6.96407 0.25782,-0.65433 0.54269,-1.24922 0.63305,-1.32198 0.18061,-0.14543 0.87703,-1.59371 1.29507,-2.69321 0.25813,-0.67894 0.22661,-0.71045 -1.00679,-1.00634 -3.50444,-0.8407 -11.723953,-0.92851 -15.629683,-0.16698 -0.21828,0.0426 -0.87313,0.16828 -1.45521,0.27936 -6.09692,1.16356 -13.00156,4.2725 -18.25257,8.21857 -4.12413,3.09922 -8.37824,7.7453 -10.86814,11.86948 -1.18502,1.96283 -3.0152,5.55082 -3.021,5.92256 -0.003,0.1819 -0.13125,0.33073 -0.28536,0.33073 -0.15411,0 -0.22203,0.0941 -0.15094,0.20914 0.0711,0.11503 -0.0319,0.56152 -0.22881,0.99219 -0.69255,1.51452 -1.74432,5.31285 -2.30485,8.32367 -0.42865,2.30243 -0.57141,4.13702 -0.58677,7.540622 -0.0242,5.35527 0.22896,7.57442 1.2374,10.84792 0.31381,1.01864 0.548,1.93582 0.52043,2.03818 -0.0276,0.10235 0.18615,0.7373 0.47493,1.411 0.28878,0.67369 0.52506,1.45315 0.52506,1.73213 0,0.27898 0.11906,0.50723 0.26458,0.50723 0.14552,0 0.26458,0.12669 0.26458,0.28154 0,0.15484 0.28126,0.89898 0.62501,1.65364 0.34376,0.75466 0.70897,1.64 0.81158,1.96742 0.10262,0.32743 0.29761,0.59532 0.43333,0.59532 0.13571,0 0.24675,0.23812 0.24675,0.52916 0,0.29105 0.11906,0.52917 0.26458,0.52917 0.14552,0 0.26459,0.15614 0.26459,0.34699 0,0.19084 0.22516,0.58867 0.50037,0.88407 0.2752,0.2954 0.78154,1.06525 1.12519,1.71079 0.62908,1.18173 0.92038,1.57942 2.01246,2.7474 0.32742,0.35018 0.59531,0.69623 0.59531,0.76899 0,0.30006 5.58091,5.97718 5.87589,5.97718 0.12505,0 0.5687,0.34918 0.98589,0.77596 0.41718,0.42677 0.82989,0.70459 0.91712,0.61736 0.0872,-0.0872 0.1586,-0.0197 0.1586,0.15008 0,0.16977 0.11906,0.30868 0.26458,0.30868 0.14552,0 0.47295,0.18666 0.72761,0.41481 0.46078,0.4128 3.718,2.50595 3.83909,2.46707 0.2067,-0.0664 1.51872,0.68069 1.51872,0.86476 0,0.12216 0.18451,0.22211 0.41001,0.22211 0.22551,0 0.79106,0.20307 1.25677,0.45127 0.46572,0.2482 0.95491,0.42051 1.0871,0.38291 0.13218,-0.0376 0.32269,0.0649 0.42336,0.22778 0.10066,0.16288 0.3497,0.32133 0.55341,0.35213 0.20372,0.0308 0.48945,0.12585 0.63497,0.21122 0.7678,0.45045 5.61513,1.75255 7.15712,1.92256 0.29839,0.0329 0.67564,0.14209 0.83834,0.24265 0.1627,0.10055 0.91351,0.23415 1.66845,0.29688 0.75494,0.0627 1.40983,0.151 1.45529,0.19614 0.10228,0.10156 5.39846,0.0722 7.996953,-0.0444 z m -4.784673,-1.49394 c -0.096,-0.0719 -3.7809,-0.42299 -4.26511,-0.40642 -0.28434,0.01 -0.65386,-0.0959 -0.82116,-0.23476 -0.1673,-0.13884 -0.5895,-0.23411 -0.93823,-0.2117 -0.34873,0.0224 -1.16984,-0.10949 -1.82468,-0.29311 -0.65485,-0.18363 -1.46193,-0.3834 -1.79352,-0.44393 -0.33159,-0.0605 -1.28409,-0.36887 -2.11667,-0.68519 -0.83257,-0.31631 -1.68741,-0.60413 -1.89964,-0.63959 -0.46373,-0.0775 -2.36585,-0.84708 -2.92142,-1.18202 -0.54174,-0.32659 -1.80725,-0.92346 -2.84427,-1.34148 -0.47295,-0.19063 -0.8599,-0.43661 -0.8599,-0.54661 0,-0.11 -0.13311,-0.19999 -0.2958,-0.19999 -0.16269,0 -0.70262,-0.35719 -1.19983,-0.79375 -0.49722,-0.43657 -1.03667,-0.79375 -1.19877,-0.79375 -0.16211,0 -0.94555,-0.53578 -1.74098,-1.19063 -0.79544,-0.65484 -1.55866,-1.19062 -1.69605,-1.19062 -0.13739,0 -0.17837,-0.11558 -0.0911,-0.25683 0.0873,-0.14125 -0.14297,-0.33255 -0.51172,-0.4251 -0.36875,-0.0926 -0.60472,-0.27463 -0.52437,-0.40463 0.0803,-0.13 0.0498,-0.23898 -0.068,-0.24219 -0.37542,-0.0102 -2.72676,-2.28806 -2.54723,-2.46759 0.0948,-0.0948 -0.0459,-0.17241 -0.31266,-0.17241 -0.26679,0 -0.41274,-0.0723 -0.32433,-0.16074 0.0884,-0.0884 -0.26816,-0.62428 -0.79236,-1.19084 -0.5242,-0.56656 -1.15766,-1.35743 -1.40769,-1.75749 -0.25004,-0.40007 -0.7004,-0.98315 -1.00082,-1.29574 -0.30041,-0.31258 -0.72539,-0.99719 -0.9444,-1.52135 -0.219,-0.52415 -0.50944,-0.95301 -0.64541,-0.95301 -0.20473,0 -0.59659,-0.93257 -0.54346,-1.29334 0.008,-0.0565 -0.13506,-0.19552 -0.31861,-0.30897 -0.18355,-0.11344 -0.37576,-0.48394 -0.42713,-0.82333 -0.0514,-0.33939 -0.209,-0.65676 -0.35032,-0.70526 -0.14131,-0.0485 -0.25693,-0.25325 -0.25693,-0.45498 0,-0.20172 -0.21561,-0.75735 -0.47913,-1.23472 -0.59391,-1.07587 -1.50806,-3.92029 -1.41194,-4.3933 0.0392,-0.1927 -0.0418,-0.49035 -0.17986,-0.66146 -0.13809,-0.1711 -0.33872,-0.96594 -0.44586,-1.76631 -0.10714,-0.80036 -0.29451,-1.71888 -0.41639,-2.04115 -0.12188,-0.32227 -0.12532,-0.64545 -0.008,-0.71818 0.11767,-0.0727 0.13136,-0.6765 0.0304,-1.34171 -0.10096,-0.66521 -0.0827,-1.27179 0.0405,-1.34796 0.12324,-0.0762 0.22407,-0.33735 0.22407,-0.58042 0,-0.69149 1.56237,-2.80773 2.47888,-3.35764 1.30836,-0.78504 3.40756,-1.74802 3.53427,-1.62131 0.0635,0.0635 0.51943,-0.0534 1.01323,-0.2597 0.49379,-0.20632 1.34671,-0.43261 1.89538,-0.50285 0.54867,-0.0703 1.0356,-0.24181 1.08208,-0.38125 0.0465,-0.13943 0.25541,-0.18794 0.46429,-0.10778 0.20888,0.0802 0.58814,0.0577 0.8428,-0.0498 0.49311,-0.2083 1.29177,-0.3654 2.57969,-0.50745 0.43656,-0.0482 0.79375,-0.114452 0.79375,-0.147332 0,-0.0605 0.32175,-0.0958 3.175,-0.34849 0.87313,-0.0773 1.76609,-0.2038 1.98438,-0.28109 0.21828,-0.0773 1.82562,-0.21558 3.57187,-0.30734 1.74625,-0.0918 3.88938,-0.21582 4.7625,-0.27568 0.87313,-0.0599 3.37344,-0.10462 5.55625,-0.0995 4.03133,0.01 4.37449,0.007 4.96094,-0.0342 0.3372,-0.0238 5.691413,0.20334 9.688113,0.41094 1.21749,0.0632 2.26941,0.17077 2.3376,0.23895 0.0682,0.0682 0.4115,0.0718 0.76293,0.008 0.35143,-0.0637 0.63895,-0.0242 0.63894,0.0878 0,0.11199 0.4914,0.19402 1.09202,0.1823 0.60062,-0.0117 1.70196,0.0793 2.44742,0.20231 1.68689,0.278312 3.43824,0.522592 5.98558,0.834892 0.50933,0.0624 1.10464,0.1791 1.32292,0.25923 0.21828,0.0801 0.99219,0.27478 1.71979,0.43255 0.7276,0.15777 1.56104,0.34242 1.85208,0.41034 0.291043,0.0679 1.184013,0.25042 1.984383,0.40557 0.80036,0.15515 1.69333,0.38264 1.98437,0.50554 0.29104,0.1229 1.3626,0.47631 2.38125,0.78537 2.25807,0.68509 3.9028,1.37033 4.16314,1.73445 0.10691,0.14954 0.19621,0.17901 0.19843,0.0655 0.006,-0.31889 2.88878,1.3608 3.87434,2.25764 0.48321,0.43972 0.81508,0.90221 0.73749,1.02776 -0.0776,0.12556 -0.0234,0.22828 0.12035,0.22828 0.14379,0 0.39568,0.64661 0.55974,1.43691 0.32406,1.561 0.16172,2.88792 -0.7953,6.50059 -1.00542,3.79536 -1.54743,5.08691 -3.83069,9.12813 -1.78344,3.15657 -6.09855,8.27339 -8.26101,9.79584 -0.25886,0.18225 -0.91645,0.75276 -1.46131,1.26781 -1.02322,0.96724 -5.347613,3.67652 -7.211433,4.51804 -0.58208,0.26281 -1.50481,0.70229 -2.05052,0.97664 -0.5457,0.27434 -0.99218,0.44541 -0.99218,0.38016 0,-0.0653 -0.53579,0.11102 -1.19063,0.39172 -0.65484,0.28069 -1.19062,0.45346 -1.19062,0.38392 0,-0.0695 -0.41888,0.0486 -0.93085,0.26249 -0.51196,0.21391 -1.01798,0.39753 -1.12448,0.40804 -0.1065,0.0105 -0.66729,0.14665 -1.24621,0.30253 -0.57891,0.15589 -1.44212,0.28343 -1.91823,0.28343 -0.47611,0 -0.86565,0.0873 -0.86565,0.19403 0,0.10672 -0.14883,0.2048 -0.33073,0.21797 -0.1819,0.0132 -1.40229,0.10181 -2.71198,0.19699 -2.20603,0.16033 -6.204843,0.30695 -6.306023,0.23123 z m -11.48655,-6.46458 c -0.45508,-0.44492 -1.06475,-0.82682 -1.35482,-0.84868 -0.29007,-0.0219 -0.4761,-0.12274 -0.41339,-0.22421 0.10536,-0.17047 -1.79751,-1.41583 -2.39963,-1.57048 -0.62589,-0.16076 -3.11172,-3.15048 -3.72328,-4.47801 -0.36688,-0.79642 -0.8238,-1.62986 -1.01537,-1.85208 -0.19157,-0.22223 -0.56226,-0.99937 -0.82375,-1.72697 -0.26149,-0.72761 -0.63313,-1.45375 -0.82585,-1.61366 -0.19272,-0.15991 -0.28321,-0.35794 -0.20108,-0.44007 0.0821,-0.0821 -0.0254,-0.42754 -0.23896,-0.76759 -0.52629,-0.83802 -0.80827,-3.69083 -0.44359,-4.4878 0.7794,-1.70326 5.43556,-2.54599 10.19688,-1.84556 1.02667,0.15103 2.30572,0.20335 2.84233,0.11627 l 0.97565,-0.15832 -0.85795,-0.46409 c -0.47187,-0.25525 -0.89764,-0.35888 -0.94614,-0.23028 -0.12082,0.32028 -1.29727,0.29613 -1.49931,-0.0308 -0.0899,-0.14552 -0.66251,-0.26527 -1.27239,-0.26611 -0.98132,-10e-4 -2.51681,-0.2143 -5.07761,-0.70417 -0.43656,-0.0835 -1.15094,-0.16725 -1.5875,-0.18609 -0.43656,-0.0188 -0.86264,-0.12732 -0.94684,-0.24108 -0.0842,-0.11375 -0.85707,-0.27185 -1.71749,-0.35132 -0.86043,-0.0795 -1.70905,-0.26454 -1.88584,-0.41126 -0.1768,-0.14673 -0.45093,-0.18674 -0.6092,-0.0889 -0.15827,0.0978 -0.45593,0.0383 -0.66146,-0.1323 -0.20553,-0.17057 -0.48975,-0.23841 -0.63159,-0.15075 -0.14184,0.0877 -0.33268,0.0384 -0.42408,-0.10951 -0.0914,-0.1479 -0.39729,-0.2689 -0.67974,-0.2689 -0.36419,0 -0.51355,-0.18276 -0.51355,-0.62839 0,-0.34561 -0.0765,-1.01081 -0.16997,-1.47822 -0.14662,-0.73311 -0.10119,-0.8385 0.33073,-0.76728 0.27538,0.0454 0.65703,-0.0154 0.8481,-0.1352 0.20852,-0.1307 0.52583,-0.0628 0.79375,0.1699 0.24549,0.21321 0.62494,0.3944 0.84322,0.40265 1.01351,0.0383 2.18774,0.31407 2.52332,0.59256 0.20312,0.16858 0.52214,0.25281 0.70893,0.18719 0.1868,-0.0656 0.62349,-0.0142 0.97043,0.11422 0.34695,0.12845 1.18038,0.29368 1.85209,0.36718 5.29552,0.57947 5.93308,0.66543 6.22319,0.83901 0.15936,0.0954 0.11321,-0.0578 -0.10257,-0.34044 -0.37457,-0.49057 -0.36859,-0.49446 0.1323,-0.086 0.28853,0.23531 0.7925,0.40404 1.11992,0.37495 0.32742,-0.0291 0.59538,0.0165 0.59546,0.10133 8e-5,0.0848 0.92281,0.18684 2.05052,0.22671 3.02843,0.10706 3.35452,0.14799 3.56767,0.44783 0.10992,0.15461 0.19965,0.0435 0.20649,-0.25573 0.0112,-0.48927 0.0326,-0.49398 0.28384,-0.0625 0.24632,0.42303 0.31042,0.42804 0.68491,0.0536 0.22724,-0.22724 0.36922,-0.44615 0.31552,-0.48646 -0.40523,-0.30416 -4.48569,-1.02841 -6.31535,-1.12092 -1.23693,-0.0625 -2.9038,-0.22517 -3.70417,-0.3614 -1.26001,-0.21447 -2.1071,-0.32762 -4.89479,-0.65384 -1.94686,-0.22782 -4.15032,-1.01167 -7.14375,-2.54128 -1.80785,-0.9238 -1.85262,-0.97127 -1.8748,-1.98784 -0.0352,-1.61428 -0.0711,-1.70289 -0.69068,-1.70289 -1.09148,0 4.22584,-2.40356 5.93703,-2.68368 2.0535,-0.33616 4.74221,-1.01047 5.09512,-1.27783 0.14552,-0.11025 1.21708,-0.27925 2.38125,-0.37557 1.16416,-0.0963 2.35479,-0.22233 2.64583,-0.28003 0.29104,-0.0577 0.678,-0.11402 0.8599,-0.12515 0.41567,-0.0255 0.43371,-0.71912 0.0253,-0.97155 -0.20472,-0.12652 -0.23555,-0.0662 -0.0935,0.18282 0.17148,0.30062 0.14391,0.30843 -0.14433,0.0409 -0.42646,-0.39583 -0.87887,-0.44074 -0.64612,-0.0641 0.0927,0.14995 -0.14031,0.12759 -0.5325,-0.0511 -0.57003,-0.25972 -0.74134,-0.24802 -0.93884,0.0641 -0.13288,0.21001 -0.24341,0.25852 -0.24564,0.1078 -0.002,-0.15072 -0.24218,-0.27403 -0.53322,-0.27403 -0.29104,0 -0.52928,0.0638 -0.52941,0.14174 -1.4e-4,0.078 -0.98241,0.14978 -2.18282,0.15962 -1.20041,0.01 -2.53975,0.0917 -2.97631,0.18188 -0.43656,0.0902 -1.32953,0.19212 -1.98438,0.22649 -0.65484,0.0344 -1.3043,0.12344 -1.44324,0.19794 -0.23344,0.12519 -1.41603,0.32488 -2.19478,0.37062 -0.1819,0.0107 -0.33073,0.0948 -0.33073,0.18699 0,0.0922 -0.26789,0.18545 -0.59531,0.2073 -1.25356,0.0837 -3.00351,0.40595 -3.63802,0.67002 -0.3638,0.15141 -0.75713,0.25393 -0.87407,0.22784 -0.25708,-0.0574 -0.99808,0.64749 -0.84335,0.80222 0.0602,0.0602 -0.30265,0.0614 -0.80635,0.003 -0.55861,-0.0653 -0.91581,0.007 -0.91581,0.18652 0,0.16145 -0.22539,0.29353 -0.50086,0.29353 -0.27548,0 -0.56939,0.1786 -0.65316,0.39688 -0.0838,0.21828 -0.32189,0.39687 -0.52917,0.39687 -0.20727,0 -0.4454,0.1786 -0.52916,0.39688 -0.0838,0.21828 -0.33463,0.39687 -0.55748,0.39687 -0.70265,0 -0.44204,0.7977 0.61189,1.87286 0.55938,0.57066 1.11096,1.03756 1.22573,1.03756 0.11478,0 0.42468,0.24906 0.68869,0.55346 0.26401,0.3044 0.59717,0.48106 0.74036,0.39256 0.14319,-0.0885 0.33513,-0.0399 0.42653,0.108 0.0914,0.14789 0.45682,0.2689 0.81203,0.2689 0.35522,0 0.64767,0.14882 0.6499,0.33073 0.003,0.22113 0.0903,0.19921 0.26444,-0.0661 0.3344,-0.50968 0.16774,2.1388 -0.16895,2.68491 -0.29092,0.47187 -1.20265,0.48473 -1.55986,0.022 -0.14834,-0.19215 -0.53529,-0.36937 -0.8599,-0.39382 -0.32461,-0.0245 -0.5902,-0.15804 -0.5902,-0.29684 0,-0.13881 -0.0783,-0.17404 -0.17409,-0.0783 -0.0958,0.0957 -0.33388,0.0415 -0.52917,-0.12059 -0.31125,-0.25832 -0.46493,-0.0914 -0.33647,0.36542 0.0102,0.0364 -0.10429,0.38936 -0.25448,0.78439 -0.1733,0.45581 -0.18009,0.7757 -0.0186,0.87551 0.13996,0.0865 0.25448,0.45164 0.25448,0.81142 0,0.35978 0.17791,0.72242 0.39535,0.80586 0.21745,0.0834 0.32578,0.26428 0.24075,0.40187 -0.085,0.13759 0.06,0.69066 0.32221,1.22904 0.26225,0.53839 0.48983,1.03842 0.50573,1.11118 0.0962,0.44005 0.76913,1.5875 0.93099,1.5875 0.19838,0 0.63673,1.29726 0.55879,1.65365 -0.0239,0.10914 0.13519,0.19844 0.35347,0.19844 0.21828,0 0.39687,0.17009 0.39687,0.37797 0,0.20789 0.15275,0.53531 0.33944,0.72761 0.18669,0.19229 0.62995,0.76634 0.98502,1.27567 0.99606,1.42877 1.10844,1.56278 2.37971,2.83784 0.65484,0.6568 1.13109,1.22187 1.05833,1.2557 -0.28971,0.13472 1.91524,2.2941 2.37813,2.32897 0.27259,0.0205 0.44931,0.11228 0.3927,0.20388 -0.20168,0.32632 0.68351,1.27635 1.2664,1.35915 0.32614,0.0463 0.59298,0.22315 0.59298,0.39293 0,0.42217 0.20328,0.59113 0.8254,0.68608 0.29078,0.0444 0.87886,0.41116 1.30685,0.81508 0.42799,0.40392 1.51359,1.09292 2.41243,1.5311 0.89885,0.43819 1.89648,1.02412 2.21697,1.30208 0.32048,0.27795 0.70445,0.43012 0.85327,0.33815 0.14881,-0.092 0.4311,0.0523 0.6273,0.32064 0.19621,0.26833 0.35674,0.39189 0.35674,0.27458 0,-0.11731 0.29766,-0.0183 0.66146,0.22011 0.3638,0.23837 0.66146,0.36438 0.66146,0.28001 0,-0.0844 0.26461,0.0319 0.58804,0.25849 0.32341,0.22653 0.8818,0.41187 1.24085,0.41187 h 0.65281 z m -17.67247,-14.81908 c -0.0959,-0.1552 -0.11766,-0.33893 -0.0483,-0.40828 0.0694,-0.0694 0.1966,0.0576 0.28277,0.28218 0.17891,0.46623 0.0264,0.54824 -0.23447,0.1261 z m 2.25984,-0.52718 c 0,-0.29963 0.11386,-0.47441 0.25303,-0.3884 0.13916,0.086 0.18595,0.33116 0.10398,0.54479 -0.20988,0.54692 -0.35701,0.48247 -0.35701,-0.15639 z m -0.4874,-3.15938 c 0,-0.3638 0.06,-0.51263 0.13346,-0.33073 0.0734,0.1819 0.0734,0.47956 0,0.66146 -0.0734,0.1819 -0.13346,0.0331 -0.13346,-0.33073 z m -3.62453,-0.0176 c -0.0959,-0.15521 -0.11765,-0.33894 -0.0483,-0.40829 0.0694,-0.0694 0.19661,0.0576 0.28278,0.28218 0.1789,0.46623 0.0264,0.54824 -0.23448,0.12611 z m -1.05833,-4.7625 c -0.0959,-0.15521 -0.11765,-0.33894 -0.0483,-0.40829 0.0693,-0.0694 0.1966,0.0576 0.28278,0.28218 0.1789,0.46623 0.0264,0.54824 -0.23448,0.12611 z m -0.50128,-0.85371 c 0.0994,-0.26094 0.24731,-0.40778 0.32877,-0.32632 0.0815,0.0815 1.7e-4,0.29496 -0.18065,0.47443 -0.26131,0.25936 -0.2917,0.22897 -0.14812,-0.14811 z m 4.08404,-2.96516 c 0,-0.21828 0.0468,-0.39687 0.10398,-0.39687 0.0572,0 0.17252,0.17859 0.25628,0.39687 0.0838,0.21828 0.037,0.39688 -0.10398,0.39688 -0.14096,0 -0.25628,-0.1786 -0.25628,-0.39688 z m -3.175,-3.30729 c 0,-0.14552 0.11906,-0.26458 0.26458,-0.26458 0.14552,0 0.26458,0.11906 0.26458,0.26458 0,0.14552 -0.11906,0.26458 -0.26458,0.26458 -0.14552,0 -0.26458,-0.11906 -0.26458,-0.26458 z m 19.54952,-1.48897 c 0.59806,-0.11961 0.87721,-0.35311 0.99813,-0.83492 0.30475,-1.2142 -1.18168,-1.7396 -3.06456,-1.08322 -0.83132,0.28979 -1.5108,1.33487 -1.1975,1.84181 0.17178,0.27795 2.03767,0.32158 3.26393,0.0763 z M 92.082537,82.911558 c 0.29104,-0.0493 0.52917,-0.114 0.52917,-0.1437 0,-0.0297 0.2262,-0.0965 0.50268,-0.14847 0.27647,-0.0519 0.60207,-0.2512 0.72355,-0.44278 0.12148,-0.19157 0.2227,-0.25052 0.22493,-0.13098 0.002,0.11953 0.20906,0.0123 0.45964,-0.23826 0.56634,-0.56634 0.68167,-4.0979 0.13972,-4.27855 -0.1819,-0.0606 -0.3327,-0.30869 -0.3351,-0.55122 -0.004,-0.37565 -0.74307,-1.16087 -2.92824,-3.1099 -0.23049,-0.20558 -0.61745,-0.37378 -0.8599,-0.37378 -0.24245,0 -0.44082,-0.11907 -0.44082,-0.26459 0,-0.14552 -0.2311,-0.26458 -0.51355,-0.26458 -0.28246,0 -0.5806,-0.10847 -0.66253,-0.24105 -0.16941,-0.2741 -2.89644,-0.21575 -4.57421,0.0979 -0.90731,0.16961 -1.15056,0.12994 -1.28056,-0.20883 -0.18293,-0.47671 0.72392,-1.47894 1.73918,-1.92212 1.44434,-0.63047 6.5112,0.0919 7.48664,1.0673 0.18879,0.18879 0.60559,0.42651 0.92622,0.52828 0.32064,0.10176 0.58297,0.29606 0.58297,0.43178 0,0.13571 0.13741,0.24675 0.30535,0.24675 0.32132,0 1.96467,1.79518 2.05876,2.24896 0.0302,0.14552 0.21088,0.44318 0.40158,0.66146 0.1907,0.21828 0.43096,0.67295 0.53391,1.01038 0.17824,0.58418 0.21294,0.56521 0.72591,-0.39688 0.2963,-0.55571 0.67263,-1.09785 0.8363,-1.20476 0.16366,-0.10692 0.2123,-0.19621 0.10807,-0.19844 -0.20487,-0.004 1.09955,-2.47753 2.029573,-3.84798 0.31479,-0.46387 0.91222,-1.51516 1.32763,-2.3362 0.41541,-0.82103 0.85488,-1.49279 0.9766,-1.49279 0.12173,0 0.22132,-0.11541 0.22132,-0.25646 0,-0.14106 0.60151,-1.30192 1.33668,-2.57969 1.51381,-2.63107 1.43733,-2.50154 2.88295,-4.88302 1.22123,-2.01183 1.26946,-2.20751 0.55729,-2.26116 -0.33541,-0.0253 -0.63446,0.23167 -0.85834,0.73744 -0.18897,0.42692 -0.43358,0.77622 -0.54358,0.77622 -0.11,0 -0.2,0.16073 -0.2,0.35718 0,0.19645 -0.34722,0.83651 -0.77161,1.42236 -0.42439,0.58586 -1.01981,1.55167 -1.32315,2.14627 -0.95751,1.87689 -2.92608,3.28279 -5.402753,3.85851 -1.26989,0.2952 -1.59826,0.27188 -3.11908,-0.22146 -0.93487,-0.30327 -1.98566,-0.81792 -2.3351,-1.14368 -0.34944,-0.32576 -0.82301,-0.65185 -1.05237,-0.72465 -0.22937,-0.0728 -0.56864,-0.37512 -0.75394,-0.67182 -0.28282,-0.45287 -0.26148,-0.64461 0.13295,-1.19463 0.25842,-0.36035 0.65779,-0.61166 0.88749,-0.55847 0.32015,0.0741 0.49515,-0.27848 0.74957,-1.51029 0.18256,-0.88384 0.73876,-2.39314 1.236,-3.354 0.49724,-0.96085 0.90408,-1.88249 0.90408,-2.04808 0,-0.5805 0.61743,-1.6489 0.95289,-1.6489 0.87072,0 0.48382,-0.56526 -1.08775,-1.58917 -0.94447,-0.61535 -1.72145,-1.25366 -1.7266,-1.41847 -0.0148,-0.47187 -0.76453,0.96881 -0.775,1.48917 -0.005,0.25624 -0.2296,0.97062 -0.49875,1.5875 -1.29723,2.9731 -1.68216,4.2207 -1.53274,4.96779 0.17141,0.85704 -0.68645,2.63609 -1.27113,2.63609 -0.48264,0 -1.18783,-1.82041 -1.16847,-3.01635 0.0161,-0.99384 0.24316,-1.65629 1.55079,-4.52427 0.33174,-0.7276 0.58008,-1.32292 0.55186,-1.32292 -0.0282,0 0.30213,-0.70067 0.73409,-1.55705 0.60504,-1.19948 0.71471,-1.634 0.47758,-1.89216 -0.22317,-0.24295 -0.33401,-0.25133 -0.40308,-0.0305 -0.11576,0.37024 -2.17849,4.99232 -3.20597,7.18383 -0.40936,0.87312 -1.07063,2.36141 -1.46949,3.30729 -0.39886,0.94589 -1.2288,2.79135 -1.84431,4.10104 -2.72228,5.79254 -3.15026,6.77443 -3.08498,7.07761 0.0235,0.10914 -0.0625,0.19843 -0.191,0.19843 -0.12855,0 -0.2971,0.20836 -0.37456,0.46302 -0.0775,0.25467 -0.38232,1.09792 -0.67747,1.8739 -0.35654,0.93734 -0.4651,1.60335 -0.32348,1.98437 0.11724,0.31543 0.1807,0.78139 0.14102,1.03548 -0.0397,0.25408 0.0363,0.529 0.16886,0.61092 0.13256,0.0819 0.24102,0.44333 0.24102,0.80311 0,0.35978 0.17859,0.72268 0.39687,0.80644 0.21829,0.0838 0.39688,0.29921 0.39688,0.47877 0,0.54965 2.18047,2.62258 3.46131,3.29059 0.66539,0.34704 1.58729,0.64469 2.04865,0.66146 0.46136,0.0168 0.83911,0.1205 0.83944,0.23053 5.3e-4,0.17758 2.70107,0.0623 4.10164,-0.17511 z m 1.93745,-19.29436 c 0.0595,-0.30695 -0.0406,-0.39184 -0.33073,-0.2805 -0.48912,0.1877 -0.57184,0.99277 -0.0854,0.83079 0.1819,-0.0606 0.36915,-0.3082 0.4161,-0.55029 z m 16.302493,-8.40592 c -0.12653,-0.20473 -0.0331,-0.21487 0.31511,-0.0342 0.27223,0.14122 1.59962,0.23916 2.94977,0.21765 2.32235,-0.037 2.47363,-0.0744 2.80328,-0.69339 0.92812,-1.7427 1.96451,-3.49331 3.24598,-5.48292 l 1.40591,-2.18281 -1.25083,-0.022 c -1.32856,-0.0234 -1.55824,-0.0452 -3.63207,-0.34408 -2.06686,-0.2979 -5.51452,-1.44349 -7.33564,-2.43748 -0.39658,-0.21647 -0.78354,-0.38858 -0.8599,-0.38248 -0.61555,0.0492 -0.94363,-0.0351 -1.24442,-0.31964 -0.1923,-0.1819 -1.26151,-0.78802 -2.37603,-1.34693 -1.11452,-0.55891 -2.2704,-1.24352 -2.56863,-1.52135 -0.29822,-0.27785 -0.67051,-0.50517 -0.82732,-0.50517 -0.28774,0 -1.011803,-0.58384 -2.378893,-1.91823 -0.40999,-0.40018 -0.83885,-0.7276 -0.95302,-0.7276 -0.35223,0 -3.54886,-3.41955 -3.54886,-3.79635 0,-0.37022 -0.98737,-1.39662 -1.16118,-1.20706 -0.0548,0.0597 -0.41363,1.00159 -0.79744,2.09299 -0.38382,1.09141 -0.80411,2.2225 -0.93397,2.51354 -0.12987,0.29105 -0.50902,1.24355 -0.84258,2.11667 -0.33355,0.87313 -0.71141,1.73111 -0.83967,1.90664 -0.30783,0.42124 0.20998,1.18766 2.12744,3.14894 0.32742,0.3349 0.59531,0.68976 0.59531,0.78858 0,0.38306 3.26223,3.28397 3.693,3.28397 0.15167,0 0.27635,0.0893 0.27707,0.19843 7.9e-4,0.10914 0.7151,0.66651 1.5875,1.23858 0.8724,0.57208 1.58618,1.15747 1.58618,1.30087 0,0.1434 0.0709,0.18979 0.15764,0.10309 0.0867,-0.0867 0.592713,0.0921 1.124483,0.39731 2.10507,1.20824 3.2158,1.76664 3.2158,1.61667 0,-0.0865 0.15978,-0.0246 0.35507,0.13744 0.19529,0.16207 0.43342,0.21634 0.52917,0.12059 0.0958,-0.0957 0.17409,-0.0352 0.17409,0.13459 0,0.16977 0.21828,0.30868 0.48507,0.30868 0.26679,0 0.56789,0.0828 0.66912,0.18404 0.19401,0.19401 0.51588,0.27655 2.02081,0.5182 0.50933,0.0818 1.2237,0.30965 1.5875,0.50638 0.81949,0.44315 0.86886,0.44987 0.64515,0.0879 z m 1.84329,-3.55132 c -0.13371,-0.53272 0.0491,-1.01024 0.80921,-2.1139 1.2078,-1.75367 1.53829,-2.03804 2.11246,-1.81771 0.33419,0.12824 0.40556,0.35015 0.27714,0.86181 -0.0951,0.379 -0.25281,0.74981 -0.35041,0.82403 -0.25471,0.19368 -0.82965,1.12166 -0.99775,1.61039 -0.0789,0.22941 -0.48872,0.62106 -0.9107,0.87033 -0.76071,0.44937 -0.7687,0.44737 -0.93995,-0.23495 z m -18.465163,-8.29476 c -0.42307,-0.46748 -0.40982,-0.59791 0.23515,-2.3151 1.46309,-3.8954 1.71576,-4.26908 2.23308,-3.30247 0.19527,0.36486 0.12354,1.03208 -0.26311,2.44739 -0.29236,1.07018 -0.58307,2.16629 -0.64603,2.4358 -0.1299,0.5561 -0.63366,1.22977 -0.91959,1.22977 -0.10515,0 -0.39293,-0.22292 -0.6395,-0.49539 z m 28.066233,1.03692 c 1.10473,-0.41605 1.44652,-1.38336 0.97106,-2.74824 -0.40924,-1.17477 -1.8423,-3.08495 -2.31441,-3.08495 -0.17704,0 -0.66537,0.54341 -1.08519,1.20758 -0.88087,1.39357 -1.34868,1.70364 -2.56597,1.70075 -1.30186,-0.003 -7.03473,-1.48363 -7.8466,-2.02642 -0.38698,-0.25874 -0.79657,-0.44273 -0.91019,-0.40887 -0.11362,0.0339 -0.4635,-0.17779 -0.7775,-0.47033 -0.314,-0.29253 -0.70731,-0.53188 -0.87403,-0.53188 -0.46346,0 -3.24833,-2.02287 -4.25646,-3.0918 -0.49293,-0.52265 -1.0166,-1.39728 -1.16371,-1.94362 -0.26246,-0.97472 -0.24919,-1.17417 0.14912,-2.24062 0.10869,-0.29104 0.22681,-0.64823 0.26247,-0.79375 0.0357,-0.14552 0.14964,-0.59201 0.2533,-0.99219 0.21188,-0.81797 0.13935,-0.83582 -3.218863,-0.79242 -1.91312,0.0247 -2.66596,0.35728 -2.89754,1.27995 -0.17171,0.68414 0.80425,3.0182 1.26202,3.0182 0.12264,0 0.22298,0.11423 0.22298,0.25384 0,0.40868 3.774823,4.02792 5.254383,5.03783 0.74619,0.50932 1.61384,1.1344 1.92811,1.38906 0.31427,0.25466 0.67722,0.46302 0.80656,0.46302 0.12934,0 0.49571,0.24273 0.81415,0.53941 0.31844,0.29667 0.87901,0.61337 1.2457,0.70378 0.3667,0.0904 1.11085,0.44299 1.65366,0.78351 0.54281,0.34052 1.08035,0.61913 1.19454,0.61913 0.11419,0 0.63927,0.23135 1.16684,0.51412 0.52757,0.28276 1.0383,0.43504 1.13495,0.33839 0.0966,-0.0966 0.25854,-0.0528 0.35977,0.0975 0.22612,0.33564 3.15328,1.11587 4.94165,1.31719 0.7249,0.0816 1.35707,0.18743 1.40481,0.23517 0.17828,0.17828 2.06979,-0.0665 2.88439,-0.37331 z m -16.00567,-10.16059 c -0.57503,-0.63184 -0.47668,-1.10479 0.68195,-3.27937 0.32952,-0.61847 0.54287,-1.12448 0.4741,-1.12448 -0.0688,0 0.14134,-0.28743 0.46691,-0.63873 0.32557,-0.35129 0.76466,-0.97637 0.97574,-1.38906 0.21109,-0.41269 0.81452,-1.46803 1.34096,-2.3452 0.52644,-0.87717 1.63587,-2.95626 2.4654,-4.62019 0.82952,-1.66393 1.63548,-3.17867 1.79102,-3.36608 0.43395,-0.52288 1.91087,-0.40784 2.62491,0.20446 0.34969,0.29986 0.91472,0.78492 1.25564,1.0779 0.34091,0.29299 0.67993,0.47261 0.75339,0.39916 0.0734,-0.0735 0.70066,0.21539 1.3938,0.64188 0.69313,0.42649 1.51497,0.77544 1.82629,0.77544 0.31133,0 0.56698,0.0893 0.56812,0.19844 10e-4,0.10914 0.29894,0.33613 0.66178,0.50442 0.49933,0.2316 0.61804,0.2316 0.48829,0 -0.10745,-0.19178 -0.0384,-0.18255 0.18488,0.0247 0.19597,0.1819 0.57063,0.33073 0.83257,0.33073 0.26193,0 0.47625,0.12139 0.47625,0.26976 0,0.14837 0.27192,0.22045 0.60428,0.16018 0.62148,-0.1127 1.5643,0.39136 1.49096,0.7971 -0.0227,0.1255 -0.0224,0.52583 8e-4,0.88963 l 0.0419,0.66146 0.38521,-0.70944 c 0.21187,-0.39019 0.5991,-0.77731 0.8605,-0.86028 0.26141,-0.083 0.65724,-0.55228 0.87962,-1.04291 0.4028,-0.88868 0.40126,-0.89346 -0.40807,-1.26583 -0.44682,-0.20559 -1.58631,-0.77064 -2.5322,-1.25567 -0.94588,-0.48503 -1.98481,-1.00538 -2.30872,-1.15632 -0.65285,-0.30422 -0.74322,-1.47706 -0.13188,-1.71165 0.34534,-0.13257 -1.2267,-1.39061 -1.7378,-1.39061 -0.13068,0 -0.44883,-0.2334 -0.70699,-0.51867 -0.25817,-0.28526 -0.54451,-0.50261 -0.63632,-0.48299 -0.29878,0.0639 -1.62215,-0.66459 -1.62215,-0.89289 0,-0.12217 -0.22354,-0.22212 -0.49677,-0.22212 -0.27322,0 -0.6439,-0.17728 -0.82373,-0.39396 -0.17982,-0.21668 -0.42236,-0.335 -0.53896,-0.26293 -0.1166,0.0721 -0.25765,-0.006 -0.31342,-0.17322 -0.15315,-0.45946 -3.07384,-0.34854 -4.35749,0.16548 -0.68094,0.27267 -1.10603,0.61284 -1.10542,0.88457 0.002,0.82208 -0.46206,1.89903 -1.78586,4.14569 -0.99793,1.69363 -3.01376,6.12269 -3.01376,6.62166 0,0.21439 -0.11907,0.3898 -0.26459,0.3898 -0.14552,0 -0.26458,0.16211 -0.26458,0.36026 0,0.19814 -0.36054,1.00182 -0.80121,1.78594 -0.44066,0.78412 -1.04367,1.96145 -1.34001,2.6163 -0.29634,0.65484 -0.65266,1.42875 -0.79181,1.71979 -0.46497,0.97253 -0.48498,1.67145 -0.0526,1.83738 0.22854,0.0877 0.34395,0.23102 0.25647,0.3185 -0.22685,0.22685 2.2426,2.21463 2.53034,2.0368 0.13124,-0.0811 0.006,-0.4028 -0.27777,-0.71487 z m -0.63136,-5.11376 c 0.19099,-0.0764 0.4192,-0.067 0.50712,0.0209 0.0879,0.0879 -0.0684,0.15045 -0.34727,0.13896 -0.30823,-0.0127 -0.37092,-0.0754 -0.15985,-0.15985 z m -0.47956,-0.68051 c 0,-0.0728 0.16799,-0.27171 0.37332,-0.44212 0.28763,-0.23871 0.41883,-0.23096 0.57159,0.0337 0.10904,0.18897 0.10083,0.25531 -0.0183,0.14744 -0.11908,-0.10788 -0.3763,-0.0635 -0.57158,0.0985 -0.19529,0.16207 -0.35507,0.23515 -0.35507,0.16239 z m 3.7984,-2.76298 c -0.41356,-0.1439 -0.12222,-1.13827 0.3335,-1.13827 0.20131,0 0.36419,0.14883 0.36197,0.33073 -0.006,0.51245 -0.36073,0.92401 -0.69547,0.80754 z m 2.88233,-7.76677 c -0.32742,-0.12849 -0.59531,-0.34876 -0.59531,-0.4895 0,-0.55676 0.55434,-1.6635 1.16082,-2.31756 0.49632,-0.53525 0.79248,-0.65057 1.32657,-0.51652 1.00016,0.25102 0.88596,1.17956 -0.30458,2.47641 -0.83606,0.91072 -1.08586,1.04402 -1.5875,0.84717 z m 8.04906,-0.97827 c -0.065,-0.10914 -0.11664,-0.52586 -0.11484,-0.92604 0.003,-0.58551 0.12418,-0.72761 0.62236,-0.72761 0.75811,0 1.22608,0.75371 0.86669,1.3959 -0.25682,0.45891 -1.15429,0.62724 -1.37421,0.25775 z"
       id="path1219" />
  </g>
</svg>
